# xmcd
#
# Track frame offsets: 
#        150
#        14583
#        33111
#        50316
#        66489
#        82767
#        103147
#        117336
#        132665
#        150470
#        165457
#
# Disc length: 2468 seconds
#
# Revision: 0
# Processed by: cddbd v1.5.2PL0 Copyright (c) Steve Scherf et al.
# Submitted via: ExactAudioCopyFreeDBPlugin 1.0
#
DISCID=8909a20b
DTITLE=Glitter Rose - DEAD or ALIVE
DYEAR=2012
DGENRE=Country
TTITLE0=Scandalous
TTITLE1=Desert Blues
TTITLE2=Superstar Pop Twin
TTITLE3=Sad Day For Love
TTITLE4=Red Light
TTITLE5=Kody Was A Killer
TTITLE6=Rock On
TTITLE7=She Says
TTITLE8=Fade Away
TTITLE9=Vodka Girls
TTITLE10=Buda Negra
EXTD=
EXTT0=
EXTT1=
EXTT2=
EXTT3=
EXTT4=
EXTT5=
EXTT6=
EXTT7=
EXTT8=
EXTT9=
EXTT10=
PLAYORDER=
